<svg width="40" height="40" viewBox="0 0 40 40" fill="none" xmlns="http://www.w3.org/2000/svg">
<g clip-path="url(#clip0_5_9)">
<mask id="mask0_5_9" style="mask-type:alpha" maskUnits="userSpaceOnUse" x="0" y="0" width="40" height="40">
<path d="M20 40C31.0457 40 40 31.0457 40 20C40 8.9543 31.0457 0 20 0C8.9543 0 0 8.9543 0 20C0 31.0457 8.9543 40 20 40Z" fill="white"/>
</mask>
<g mask="url(#mask0_5_9)">
<path d="M20 40C31.0457 40 40 31.0457 40 20C40 8.9543 31.0457 0 20 0C8.9543 0 0 8.9543 0 20C0 31.0457 8.9543 40 20 40Z" fill="black"/>
<path d="M40 0H0V40H40V0Z" fill="url(#paint0_linear_5_9)"/>
<path fill-rule="evenodd" clip-rule="evenodd" d="M23.6913 26.4167C23.7779 26.1676 23.8228 25.904 23.8228 25.6339C23.8228 24.3173 22.7554 23.25 21.4388 23.25H15.859L23.6181 9.81093C24.0553 9.05364 23.7958 8.08529 23.0385 7.64806C22.2812 7.21084 21.3129 7.4703 20.8757 8.2276L19.9944 9.75395L19.0103 8.04949C18.6033 7.34442 17.7017 7.10284 16.9966 7.50992C16.2916 7.91699 16.05 8.81856 16.4571 9.52362L18.2922 12.7022L12.2025 23.25H7.50002C6.62557 23.25 5.91669 23.9589 5.91669 24.8333C5.91669 25.7078 6.62557 26.4167 7.50002 26.4167H23.6913H23.6913ZM22.7728 14.4565C21.5334 15.9731 21.332 18.1283 22.337 19.8691C22.5356 20.2131 22.7969 20.7075 23.4381 21.9421L28.9505 31.4899C29.3878 32.2472 30.3561 32.5067 31.1134 32.0695C31.8707 31.6323 32.1302 30.6639 31.6929 29.9066L29.678 26.4167H32.5C33.3745 26.4167 34.0834 25.7078 34.0834 24.8333C34.0834 23.9589 33.3745 23.25 32.5 23.25H27.8497L22.7728 14.4565ZM12.823 28.5086C12.36 27.8399 11.5974 27.4293 10.7636 27.4293C10.372 27.4293 9.99263 27.5149 9.64612 27.6777L8.37566 29.8782C7.93843 30.6355 8.1979 31.6039 8.9552 32.0411C9.71249 32.4783 10.6808 32.2189 11.1181 31.4616L12.823 28.5086Z" stroke="white" stroke-width="0.5"/>
</g>
</g>
<defs>
<linearGradient id="paint0_linear_5_9" x1="20" y1="40" x2="20" y2="0" gradientUnits="userSpaceOnUse">
<stop stop-color="#1D6FF2"/>
<stop offset="1" stop-color="#1AC8FC"/>
</linearGradient>
<clipPath id="clip0_5_9">
<rect width="40" height="40" fill="white"/>
</clipPath>
</defs>
</svg>
