<svg width="40" height="40" viewBox="0 0 40 40" fill="none" xmlns="http://www.w3.org/2000/svg">
<path d="M40 20C40 21.25 39.2364 22.35 38.1273 22.9167L28.6727 27.7333L20.6727 20L28.6727 12.2667L38.1273 17.0833C39.2364 17.65 40 18.75 40 20Z" fill="#FFC107"/>
<path d="M20.6727 20L1.03636 38.9833C0.381818 38.3833 0 37.5667 0 36.6667V3.33333C0 2.43333 0.381818 1.61666 1.03636 1.01666L20.6727 20Z" fill="#03A9F4"/>
<path d="M20.6727 20L28.6727 27.7333L5.4 39.5833C4.87273 39.85 4.27273 40 3.63636 40C2.61818 40 1.69091 39.6167 1.03636 38.9833L20.6727 20Z" fill="#F44336"/>
<path d="M28.6727 12.2667L20.6727 20L1.03636 1.01667C1.69091 0.383333 2.61818 0 3.63636 0C4.27273 0 4.87273 0.15 5.4 0.416667L28.6727 12.2667Z" fill="#4CAF50"/>
</svg>
