<svg width="15" height="15" viewBox="0 0 15 15" fill="none" xmlns="http://www.w3.org/2000/svg">
<path d="M4.44375 7.2L4 10.2875C3.95375 10.6563 4.18125 11 4.7125 11L7.8 10.5563C7.93466 10.5384 8.05977 10.4769 8.15625 10.3813C8.20562 10.3319 13.05 5.49188 13.0937 5.4375C15.245 3.06125 11.8594 -0.180624 9.5625 1.90625C9.50812 1.95 4.6675 6.795 4.61875 6.84375C4.52311 6.94022 4.46165 7.06534 4.44375 7.2V7.2ZM11.25 2.5125C11.4137 2.51034 11.5762 2.54079 11.728 2.60206C11.8798 2.66333 12.0179 2.7542 12.1343 2.86938C12.2506 2.98456 12.3428 3.12174 12.4056 3.27293C12.4684 3.42412 12.5005 3.58629 12.5 3.75C12.5004 4.0167 12.4125 4.27602 12.25 4.4875L10.5125 2.75C10.7256 2.5921 10.9848 2.50865 11.25 2.5125V2.5125ZM5.65 7.58125L9.6125 3.625L11.375 5.3875L7.41875 9.35L5.35625 9.64375L5.65 7.58125Z" fill="white"/>
<path d="M11.875 8.20312V10.625C11.8745 11.1221 11.6768 11.5988 11.3253 11.9503C10.9738 12.3018 10.4971 12.4995 10 12.5H4.375C3.87787 12.4995 3.40125 12.3018 3.04972 11.9503C2.6982 11.5988 2.5005 11.1221 2.5 10.625V5C2.5005 4.50287 2.6982 4.02625 3.04972 3.67472C3.40125 3.3232 3.87787 3.1255 4.375 3.125H6.85562C7.02139 3.125 7.18036 3.05915 7.29757 2.94194C7.41478 2.82473 7.48062 2.66576 7.48062 2.5C7.48062 2.33424 7.41478 2.17527 7.29757 2.05806C7.18036 1.94085 7.02139 1.875 6.85562 1.875H4.375C3.5465 1.87599 2.75222 2.20555 2.16639 2.79139C1.58055 3.37722 1.25099 4.1715 1.25 5V10.625C1.25099 11.4535 1.58055 12.2478 2.16639 12.8336C2.75222 13.4194 3.5465 13.749 4.375 13.75H10C10.8285 13.749 11.6228 13.4194 12.2086 12.8336C12.7944 12.2478 13.124 11.4535 13.125 10.625V8.20312C13.125 8.03736 13.0592 7.87839 12.9419 7.76118C12.8247 7.64397 12.6658 7.57812 12.5 7.57812C12.3342 7.57812 12.1753 7.64397 12.0581 7.76118C11.9408 7.87839 11.875 8.03736 11.875 8.20312Z" fill="white"/>
</svg>
